<svg width="108" height="159" viewBox="0 0 108 159" fill="none" xmlns="http://www.w3.org/2000/svg">
<path d="M39.8657 44.5299C39.9822 43.99 39.639 43.4579 39.0992 43.3414C38.5593 43.2249 38.0272 43.5681 37.9107 44.1079L39.8657 44.5299ZM37.1853 20.826C35.7115 24.1351 30.106 31.4788 19.7522 33.4801L20.1317 35.4437C31.2503 33.2947 37.3283 25.4206 39.0123 21.6396L37.1853 20.826ZM43.9807 23.8053C42.7475 28.0196 36.6269 38.6671 22.1212 46.0209L23.0255 47.8048C37.9918 40.2175 44.502 29.145 45.9002 24.367L43.9807 23.8053ZM37.9107 44.1079C37.5109 45.9604 36.2544 48.6818 34.1621 50.9801C32.0822 53.2647 29.2428 55.0625 25.6779 55.2524L25.7843 57.2496C30.0084 57.0245 33.3089 54.8882 35.641 52.3265C37.9608 49.7784 39.3884 46.7413 39.8657 44.5299L37.9107 44.1079ZM39.7416 51.6909C39.5041 53.2514 38.5295 55.9926 36.7314 58.6473C34.9391 61.2933 32.3974 63.7522 29.0865 64.9041L29.7437 66.7931C33.5902 65.4548 36.443 62.6393 38.3873 59.7689C40.3257 56.9072 41.43 53.8898 41.7188 51.9918L39.7416 51.6909ZM44.4931 59.914C44.1291 61.4689 43.038 64.2123 41.2083 66.946C39.3797 69.678 36.8753 72.3079 33.7322 73.7602L34.5711 75.5758C38.1644 73.9154 40.9228 70.9683 42.8704 68.0585C44.8168 65.1504 46.015 62.1871 46.4404 60.3699L44.4931 59.914ZM48.9465 63.8855C49.3414 67.3893 47.1413 76.4987 37.5924 82.1063L38.6052 83.8309C48.8446 77.8177 51.4161 67.9395 50.9339 63.6614L48.9465 63.8855ZM30.955 15.4847C30.3167 16.4285 29.0484 17.8651 27.3775 19.0063C25.7074 20.1469 23.7205 20.9365 21.6062 20.7552L21.4354 22.7479C24.1629 22.9817 26.6055 21.9555 28.5055 20.6578C30.4045 19.3608 31.8465 17.7365 32.6117 16.6051L30.955 15.4847Z" fill="#EF9C9C"/>
<path d="M69.939 44.0595C70.553 47.1722 73.8335 54.0202 80.9909 56.5104M66.7813 53.6571C67.8338 56.6834 71.4652 62.6321 77.5701 65.3298" stroke="#EF9C9C" stroke-width="2"/>
<path d="M62.8341 59.6231C63.7113 62.9088 67.1497 71.0365 73.8861 74.1492M59.4133 62.7358C59.5887 67.9237 61.8342 79.8559 69.4127 82.9686" stroke="#EF9C9C" stroke-width="2"/>
<path d="M52.8205 107.428C53.1491 107.872 53.7753 107.965 54.2192 107.637C54.6631 107.308 54.7565 106.682 54.4279 106.238L52.8205 107.428ZM54.4279 106.238C41.7799 89.1538 26.7422 63.6173 22.4158 42.047C20.2522 31.2604 20.805 21.6553 25.451 14.5836C30.0691 7.55435 38.9098 2.76762 53.9384 1.99869L53.8362 0.0013063C38.4456 0.788749 28.8751 5.7293 23.7794 13.4855C18.7116 21.1993 18.248 31.4378 20.4548 42.4403C24.8691 64.4483 40.1191 90.2718 52.8205 107.428L54.4279 106.238Z" fill="#EF9C9C"/>
<path d="M53.6242 106.833C78.6444 72.8427 113.673 4.09001 53.6242 1" stroke="#EF9C9C" stroke-width="2" stroke-linecap="round" stroke-linejoin="round"/>
<path d="M10.2066 101.645C11.3891 92.7084 26.8089 89.1372 35.8253 88.2921C36.5966 88.2198 37.0244 87.3451 36.5902 86.7035L36.3062 86.2837C36.1119 85.9966 35.7743 85.8306 35.428 85.8469C10.8658 87.0021 2.42603 96.3236 1.25885 101.645C-0.8463 111.243 9.25837 129.919 54.9399 129.919C100.621 129.919 108.533 111.07 106.779 101.645C105.124 92.0625 83.6909 87.0371 72.6257 85.6341C72.2625 85.588 71.9122 85.7483 71.7002 86.0468L71.2419 86.6922C70.7882 87.3312 71.2128 88.2226 71.9935 88.2911C90.3977 89.9066 96.7195 97.7901 97.5699 101.645C97.5699 126.547 7.63235 121.1 10.2066 101.645Z" stroke="#EF9C9C" stroke-width="2"/>
<path d="M38.3619 34.9807C38.0988 44.3189 40.8881 63.4103 54.1505 65.0705C60.729 63.7735 73.3072 53.1947 69.939 29.3304M43.8879 2.55646C45.6422 4.45868 51.5716 8.21125 61.2553 8.00374C73.3598 7.74434 82.8329 13.9698 83.8855 16.8231M34.6779 5.1504C37.8356 9.5601 47.5719 18.0682 61.2553 16.8231C74.9387 15.578 84.0609 25.9884 86.7801 31.3492M27.0468 10.8571C29.9413 16.045 39.4145 24.8644 58.6239 26.6801C81.4142 28.8344 82.0435 43.2813 83.6224 49.2474" stroke="#EF9C9C" stroke-width="2"/>
<path d="M39.0634 33.4658C38.5132 33.5144 38.1066 33.9997 38.1552 34.5499C38.2038 35.1 38.6891 35.5066 39.2393 35.4581L39.0634 33.4658ZM51.7822 50.8038L50.819 50.5347C50.7349 50.8359 50.7965 51.1592 50.9856 51.4083C51.1747 51.6574 51.4694 51.8038 51.7822 51.8038V50.8038ZM55.203 51.8038C55.7553 51.8038 56.203 51.3561 56.203 50.8038C56.203 50.2515 55.7553 49.8038 55.203 49.8038V51.8038ZM51.7822 53.1759C51.2299 53.1759 50.7822 53.6236 50.7822 54.1759C50.7822 54.7282 51.2299 55.1759 51.7822 55.1759V53.1759ZM56.2556 55.1759C56.8079 55.1759 57.2556 54.7282 57.2556 54.1759C57.2556 53.6236 56.8079 53.1759 56.2556 53.1759V55.1759ZM52.8347 56.0292C52.2824 56.0292 51.8347 56.4769 51.8347 57.0292C51.8347 57.5815 52.2824 58.0292 52.8347 58.0292V56.0292ZM55.203 58.0292C55.7553 58.0292 56.203 57.5815 56.203 57.0292C56.203 56.4769 55.7553 56.0292 55.203 56.0292V58.0292ZM56.8328 37.4192C56.4604 37.8271 56.4892 38.4596 56.897 38.832C57.3049 39.2043 57.9374 39.1756 58.3098 38.7677L56.8328 37.4192ZM59.4623 41.2937C58.9376 41.1213 58.3725 41.4069 58.2001 41.9316C58.0277 42.4563 58.3133 43.0214 58.838 43.1938L59.4623 41.2937ZM39.2393 35.4581C42.0447 35.2104 45.9007 35.7137 48.5422 37.8468C49.8397 38.8946 50.8661 40.3501 51.3499 42.3697C51.8374 44.4044 51.7871 47.0693 50.819 50.5347L52.7453 51.0728C53.7771 47.3789 53.8825 44.3567 53.2949 41.9038C52.7037 39.4359 51.4243 37.6035 49.7987 36.2908C46.5941 33.703 42.1348 33.1947 39.0634 33.4658L39.2393 35.4581ZM51.7822 51.8038H55.203V49.8038H51.7822V51.8038ZM51.7822 55.1759H56.2556V53.1759H51.7822V55.1759ZM52.8347 58.0292H55.203V56.0292H52.8347V58.0292ZM58.3098 38.7677C59.7114 37.2326 64.1134 34.2808 70.0087 35.443L70.3955 33.4808C63.66 32.1529 58.5889 35.4957 56.8328 37.4192L58.3098 38.7677ZM58.838 43.1938C60.3496 43.6905 62.8216 44.2666 65.2011 44.2228C67.5292 44.1799 70.1475 43.5244 71.3571 41.1398L69.5734 40.235C68.8884 41.5856 67.2964 42.1839 65.1643 42.2231C63.0835 42.2615 60.8452 41.7481 59.4623 41.2937L58.838 43.1938Z" fill="#EF9C9C"/>
<path d="M38.625 39.9092C39.853 41.6709 43.73 44.5601 49.4139 42.0233" stroke="#EF9C9C" stroke-width="2" stroke-linecap="round"/>
<mask id="path-10-outside-1_107_3" maskUnits="userSpaceOnUse" x="20.054" y="136.919" width="67" height="22" fill="black">
<rect fill="white" x="20.054" y="136.919" width="67" height="22"/>
<path d="M26.437 158.689C25.8999 158.689 25.4628 158.51 25.1256 158.152C24.8009 157.794 24.5136 157.195 24.2638 156.355L21.054 138.123H22.4029L25.5939 156.337C25.7064 156.732 25.825 157.016 25.9499 157.189C26.0873 157.362 26.2496 157.448 26.437 157.448C26.6118 157.448 26.7617 157.368 26.8866 157.207C27.0115 157.035 27.1364 156.744 27.2613 156.337L30.5523 138.123H31.9198L28.6101 156.355C28.3604 157.183 28.0669 157.782 27.7296 158.152C27.3924 158.51 26.9615 158.689 26.437 158.689Z"/>
<path d="M38.2965 154.454C36.6354 154.454 35.3615 154.052 34.4747 153.25C33.588 152.435 33.1259 148.1 33.1259 146.569V142.642C33.1259 141.111 33.5692 139.944 34.456 139.141C35.3427 138.326 36.6166 137.919 38.2777 137.919C39.9388 137.919 41.2128 138.326 42.0995 139.141C42.9863 139.944 43.4296 141.111 43.4296 142.642V146.569C43.4296 148.1 43.005 152.435 42.1182 153.25C41.2315 154.052 39.9576 154.454 38.2965 154.454ZM38.2965 153.379C39.5204 153.379 40.4571 153.064 41.1066 152.435C41.7685 151.805 42.0808 147.742 42.0808 146.569V142.642C42.0808 141.469 41.7498 140.568 41.0879 139.938C40.4384 139.308 39.5017 138.993 38.2777 138.993C37.0538 138.993 36.1108 139.308 35.4489 139.938C34.7994 140.568 34.4747 141.469 34.4747 142.642V146.569C34.4747 147.742 34.8182 151.805 35.4676 152.435C36.1296 153.064 37.0725 153.379 38.2965 153.379Z"/>
<path d="M48.5749 145.661L44.0787 138.123H45.5775L49.2868 144.42L52.9212 138.123H54.4387L49.9238 145.661V151.089H48.5749V145.661Z"/>
<path d="M61.5038 146.921H55.5838L54.2912 151.089H52.9423L56.3332 140.253C56.608 139.376 56.9015 138.771 57.2137 138.438C57.5384 138.092 57.9818 137.919 58.5438 137.919C59.1059 137.919 59.5492 138.092 59.874 138.438C60.1987 138.771 60.4984 139.376 60.7732 140.253L64.1641 151.089H62.7965L61.5038 146.921ZM61.1853 145.884L59.4431 140.271C59.3057 139.851 59.1745 139.561 59.0496 139.401C58.9248 139.24 58.7561 139.16 58.5438 139.16C58.344 139.16 58.1816 139.24 58.0567 139.401C57.9318 139.561 57.8007 139.851 57.6633 140.271L55.9211 145.884H61.1853Z"/>
<path d="M70.5341 154.583C68.8231 154.583 67.5179 154.182 66.6187 153.379C65.7319 152.564 65.2886 148.1 65.2886 146.569V142.624C65.2886 141.08 65.7319 139.913 66.6187 139.123C67.5179 138.32 68.8356 137.919 70.5716 137.919C72.6573 137.919 74.2185 138.53 75.2551 139.753L74.2809 140.531C73.4067 139.506 72.164 138.993 70.5528 138.993C69.2539 138.993 68.2735 139.302 67.6116 139.919C66.9621 140.524 66.6374 141.426 66.6374 142.624V146.569C66.6374 147.779 66.9684 151.984 67.6303 152.601C68.2923 153.206 69.2664 153.509 70.5528 153.509C71.6769 153.509 72.5699 153.293 73.2318 152.861C73.8938 152.428 74.2247 148.557 74.2247 147.829V146.643C74.2247 146.088 74.0749 145.668 73.7751 145.384C73.4754 145.087 73.0445 144.939 72.4825 144.939H70.2344V143.865H72.7635C74.6119 143.865 75.5361 144.748 75.5361 146.514V147.903C75.5361 148.594 75.3301 152.484 74.9179 152.99C74.5182 153.497 73.9375 153.892 73.1756 154.176C72.4263 154.447 71.5458 154.583 70.5341 154.583Z"/>
<path d="M81.9065 158.523C80.4452 158.523 79.3586 158.208 78.6467 157.578C77.9473 156.936 77.71 148.526 77.71 147.217V141.994C77.71 140.685 78.0597 139.716 78.7591 139.086C79.471 138.444 80.5576 138.123 82.0189 138.123H86.5338V139.197H82.0189C81.0072 139.197 80.2579 139.425 79.7708 139.882C79.2962 140.339 79.0589 141.043 79.0589 141.994V144.069H85.5783V145.143H79.0589V147.217C79.0589 148.168 79.1838 156.306 79.6584 156.763C80.1455 157.22 80.8948 157.448 81.9065 157.448H86.5338V158.523H81.9065Z"/>
</mask>
<path d="M26.437 158.689C25.8999 158.689 25.4628 158.51 25.1256 158.152C24.8009 157.794 24.5136 157.195 24.2638 156.355L21.054 138.123H22.4029L25.5939 156.337C25.7064 156.732 25.825 157.016 25.9499 157.189C26.0873 157.362 26.2496 157.448 26.437 157.448C26.6118 157.448 26.7617 157.368 26.8866 157.207C27.0115 157.035 27.1364 156.744 27.2613 156.337L30.5523 138.123H31.9198L28.6101 156.355C28.3604 157.183 28.0669 157.782 27.7296 158.152C27.3924 158.51 26.9615 158.689 26.437 158.689Z" fill="#EF9C9C"/>
<path d="M38.2965 154.454C36.6354 154.454 35.3615 154.052 34.4747 153.25C33.588 152.435 33.1259 148.1 33.1259 146.569V142.642C33.1259 141.111 33.5692 139.944 34.456 139.141C35.3427 138.326 36.6166 137.919 38.2777 137.919C39.9388 137.919 41.2128 138.326 42.0995 139.141C42.9863 139.944 43.4296 141.111 43.4296 142.642V146.569C43.4296 148.1 43.005 152.435 42.1182 153.25C41.2315 154.052 39.9576 154.454 38.2965 154.454ZM38.2965 153.379C39.5204 153.379 40.4571 153.064 41.1066 152.435C41.7685 151.805 42.0808 147.742 42.0808 146.569V142.642C42.0808 141.469 41.7498 140.568 41.0879 139.938C40.4384 139.308 39.5017 138.993 38.2777 138.993C37.0538 138.993 36.1108 139.308 35.4489 139.938C34.7994 140.568 34.4747 141.469 34.4747 142.642V146.569C34.4747 147.742 34.8182 151.805 35.4676 152.435C36.1296 153.064 37.0725 153.379 38.2965 153.379Z" fill="#EF9C9C"/>
<path d="M48.5749 145.661L44.0787 138.123H45.5775L49.2868 144.42L52.9212 138.123H54.4387L49.9238 145.661V151.089H48.5749V145.661Z" fill="#EF9C9C"/>
<path d="M61.5038 146.921H55.5838L54.2912 151.089H52.9423L56.3332 140.253C56.608 139.376 56.9015 138.771 57.2137 138.438C57.5384 138.092 57.9818 137.919 58.5438 137.919C59.1059 137.919 59.5492 138.092 59.874 138.438C60.1987 138.771 60.4984 139.376 60.7732 140.253L64.1641 151.089H62.7965L61.5038 146.921ZM61.1853 145.884L59.4431 140.271C59.3057 139.851 59.1745 139.561 59.0496 139.401C58.9248 139.24 58.7561 139.16 58.5438 139.16C58.344 139.16 58.1816 139.24 58.0567 139.401C57.9318 139.561 57.8007 139.851 57.6633 140.271L55.9211 145.884H61.1853Z" fill="#EF9C9C"/>
<path d="M70.5341 154.583C68.8231 154.583 67.5179 154.182 66.6187 153.379C65.7319 152.564 65.2886 148.1 65.2886 146.569V142.624C65.2886 141.08 65.7319 139.913 66.6187 139.123C67.5179 138.32 68.8356 137.919 70.5716 137.919C72.6573 137.919 74.2185 138.53 75.2551 139.753L74.2809 140.531C73.4067 139.506 72.164 138.993 70.5528 138.993C69.2539 138.993 68.2735 139.302 67.6116 139.919C66.9621 140.524 66.6374 141.426 66.6374 142.624V146.569C66.6374 147.779 66.9684 151.984 67.6303 152.601C68.2923 153.206 69.2664 153.509 70.5528 153.509C71.6769 153.509 72.5699 153.293 73.2318 152.861C73.8938 152.428 74.2247 148.557 74.2247 147.829V146.643C74.2247 146.088 74.0749 145.668 73.7751 145.384C73.4754 145.087 73.0445 144.939 72.4825 144.939H70.2344V143.865H72.7635C74.6119 143.865 75.5361 144.748 75.5361 146.514V147.903C75.5361 148.594 75.3301 152.484 74.9179 152.99C74.5182 153.497 73.9375 153.892 73.1756 154.176C72.4263 154.447 71.5458 154.583 70.5341 154.583Z" fill="#EF9C9C"/>
<path d="M81.9065 158.523C80.4452 158.523 79.3586 158.208 78.6467 157.578C77.9473 156.936 77.71 148.526 77.71 147.217V141.994C77.71 140.685 78.0597 139.716 78.7591 139.086C79.471 138.444 80.5576 138.123 82.0189 138.123H86.5338V139.197H82.0189C81.0072 139.197 80.2579 139.425 79.7708 139.882C79.2962 140.339 79.0589 141.043 79.0589 141.994V144.069H85.5783V145.143H79.0589V147.217C79.0589 148.168 79.1838 156.306 79.6584 156.763C80.1455 157.22 80.8948 157.448 81.9065 157.448H86.5338V158.523H81.9065Z" fill="#EF9C9C"/>
<path d="M26.437 158.689C25.8999 158.689 25.4628 158.51 25.1256 158.152C24.8009 157.794 24.5136 157.195 24.2638 156.355L21.054 138.123H22.4029L25.5939 156.337C25.7064 156.732 25.825 157.016 25.9499 157.189C26.0873 157.362 26.2496 157.448 26.437 157.448C26.6118 157.448 26.7617 157.368 26.8866 157.207C27.0115 157.035 27.1364 156.744 27.2613 156.337L30.5523 138.123H31.9198L28.6101 156.355C28.3604 157.183 28.0669 157.782 27.7296 158.152C27.3924 158.51 26.9615 158.689 26.437 158.689Z" stroke="#EF9C9C" stroke-width="0.4" mask="url(#path-10-outside-1_107_3)"/>
<path d="M38.2965 154.454C36.6354 154.454 35.3615 154.052 34.4747 153.25C33.588 152.435 33.1259 148.1 33.1259 146.569V142.642C33.1259 141.111 33.5692 139.944 34.456 139.141C35.3427 138.326 36.6166 137.919 38.2777 137.919C39.9388 137.919 41.2128 138.326 42.0995 139.141C42.9863 139.944 43.4296 141.111 43.4296 142.642V146.569C43.4296 148.1 43.005 152.435 42.1182 153.25C41.2315 154.052 39.9576 154.454 38.2965 154.454ZM38.2965 153.379C39.5204 153.379 40.4571 153.064 41.1066 152.435C41.7685 151.805 42.0808 147.742 42.0808 146.569V142.642C42.0808 141.469 41.7498 140.568 41.0879 139.938C40.4384 139.308 39.5017 138.993 38.2777 138.993C37.0538 138.993 36.1108 139.308 35.4489 139.938C34.7994 140.568 34.4747 141.469 34.4747 142.642V146.569C34.4747 147.742 34.8182 151.805 35.4676 152.435C36.1296 153.064 37.0725 153.379 38.2965 153.379Z" stroke="#EF9C9C" stroke-width="0.4" mask="url(#path-10-outside-1_107_3)"/>
<path d="M48.5749 145.661L44.0787 138.123H45.5775L49.2868 144.42L52.9212 138.123H54.4387L49.9238 145.661V151.089H48.5749V145.661Z" stroke="#EF9C9C" stroke-width="0.4" mask="url(#path-10-outside-1_107_3)"/>
<path d="M61.5038 146.921H55.5838L54.2912 151.089H52.9423L56.3332 140.253C56.608 139.376 56.9015 138.771 57.2137 138.438C57.5384 138.092 57.9818 137.919 58.5438 137.919C59.1059 137.919 59.5492 138.092 59.874 138.438C60.1987 138.771 60.4984 139.376 60.7732 140.253L64.1641 151.089H62.7965L61.5038 146.921ZM61.1853 145.884L59.4431 140.271C59.3057 139.851 59.1745 139.561 59.0496 139.401C58.9248 139.24 58.7561 139.16 58.5438 139.16C58.344 139.16 58.1816 139.24 58.0567 139.401C57.9318 139.561 57.8007 139.851 57.6633 140.271L55.9211 145.884H61.1853Z" stroke="#EF9C9C" stroke-width="0.4" mask="url(#path-10-outside-1_107_3)"/>
<path d="M70.5341 154.583C68.8231 154.583 67.5179 154.182 66.6187 153.379C65.7319 152.564 65.2886 148.1 65.2886 146.569V142.624C65.2886 141.08 65.7319 139.913 66.6187 139.123C67.5179 138.32 68.8356 137.919 70.5716 137.919C72.6573 137.919 74.2185 138.53 75.2551 139.753L74.2809 140.531C73.4067 139.506 72.164 138.993 70.5528 138.993C69.2539 138.993 68.2735 139.302 67.6116 139.919C66.9621 140.524 66.6374 141.426 66.6374 142.624V146.569C66.6374 147.779 66.9684 151.984 67.6303 152.601C68.2923 153.206 69.2664 153.509 70.5528 153.509C71.6769 153.509 72.5699 153.293 73.2318 152.861C73.8938 152.428 74.2247 148.557 74.2247 147.829V146.643C74.2247 146.088 74.0749 145.668 73.7751 145.384C73.4754 145.087 73.0445 144.939 72.4825 144.939H70.2344V143.865H72.7635C74.6119 143.865 75.5361 144.748 75.5361 146.514V147.903C75.5361 148.594 75.3301 152.484 74.9179 152.99C74.5182 153.497 73.9375 153.892 73.1756 154.176C72.4263 154.447 71.5458 154.583 70.5341 154.583Z" stroke="#EF9C9C" stroke-width="0.4" mask="url(#path-10-outside-1_107_3)"/>
<path d="M81.9065 158.523C80.4452 158.523 79.3586 158.208 78.6467 157.578C77.9473 156.936 77.71 148.526 77.71 147.217V141.994C77.71 140.685 78.0597 139.716 78.7591 139.086C79.471 138.444 80.5576 138.123 82.0189 138.123H86.5338V139.197H82.0189C81.0072 139.197 80.2579 139.425 79.7708 139.882C79.2962 140.339 79.0589 141.043 79.0589 141.994V144.069H85.5783V145.143H79.0589V147.217C79.0589 148.168 79.1838 156.306 79.6584 156.763C80.1455 157.22 80.8948 157.448 81.9065 157.448H86.5338V158.523H81.9065Z" stroke="#EF9C9C" stroke-width="0.4" mask="url(#path-10-outside-1_107_3)"/>
</svg>
